<?xml version="1.0" encoding="UTF-8"?> <!-- Generator: Adobe Illustrator 24.3.0, SVG Export Plug-In . SVG Version: 6.00 Build 0) --> <svg xmlns="http://www.w3.org/2000/svg" xmlns:xlink="http://www.w3.org/1999/xlink" version="1.1" id="Layer_1" x="0px" y="0px" viewBox="0 0 285.5 49" style="enable-background:new 0 0 285.5 49;" xml:space="preserve"> <style type="text/css"> .st0{fill-rule:evenodd;clip-rule:evenodd;fill:#00589A;} .st1{fill:#0062AC;} .st2{fill:#ECECEC;} .st3{font-family:'BrowalliaNew';} .st4{font-size:17.544px;} </style> <path class="st0" d="M3,2.2C2.6,2.2,2.2,2.6,2.2,3v42.9c0,0.4,0.3,0.8,0.8,0.8h47.3c0.4,0,0.8-0.3,0.8-0.8V3c0-0.4-0.3-0.8-0.8-0.8 H3z"></path> <path class="st1" d="M50.3,0c0.1,0,0.3,0,0.4,0l0.3,0.1c0.3,0.1,0.6,0.2,0.8,0.3l0.2,0.2c0.2,0.2,0.4,0.4,0.6,0.6l0.2,0.2 c0.2,0.3,0.3,0.5,0.3,0.8l0.1,0.3c0,0.1,0,0.3,0,0.4v42.9c0,0.1,0,0.3,0,0.4l-0.1,0.3c-0.1,0.3-0.2,0.6-0.3,0.8l-0.2,0.2 c-0.2,0.2-0.4,0.4-0.6,0.6l-0.2,0.2c-0.2,0.2-0.5,0.3-0.8,0.4l-0.3,0c-0.1,0-0.3,0-0.4,0H3c-0.1,0-0.3,0-0.4,0l-0.3,0 c-0.3-0.1-0.6-0.2-0.8-0.4l-0.2-0.2c-0.2-0.2-0.4-0.3-0.6-0.6l-0.2-0.2c-0.2-0.2-0.3-0.5-0.4-0.8L0,46.3c0-0.1,0-0.3,0-0.4V3 c0-0.1,0-0.3,0-0.4l0.1-0.3C0.2,2,0.3,1.7,0.5,1.4l0.2-0.2C0.8,1,1,0.8,1.2,0.6l0.2-0.2C1.7,0.3,2,0.2,2.3,0.1L2.6,0 C2.7,0,2.9,0,3,0H50.3z M3,0.9c-0.1,0-0.2,0-0.3,0L2.5,1C2.3,1,2.1,1.1,2,1.2L1.7,1.4C1.6,1.5,1.5,1.6,1.4,1.7L1.2,1.9 C1.1,2.1,1,2.3,1,2.4L0.9,2.8c0,0.1,0,0.2,0,0.3v42.9c0,0.1,0,0.2,0,0.3L1,46.4c0,0.2,0.1,0.3,0.2,0.5l0.2,0.2 c0.1,0.1,0.2,0.2,0.3,0.3L2,47.7c0.1,0.1,0.3,0.2,0.5,0.2L2.8,48c0.1,0,0.2,0,0.3,0h47.3c0.1,0,0.2,0,0.3,0l0.3-0.1 c0.2,0,0.3-0.1,0.5-0.2l0.2-0.2c0.1-0.1,0.3-0.2,0.3-0.3l0.2-0.2c0.1-0.2,0.2-0.3,0.2-0.5l0.1-0.3c0-0.1,0-0.2,0-0.3V3 c0-0.1,0-0.2,0-0.3l-0.1-0.3c0-0.2-0.1-0.3-0.2-0.5L52,1.7c-0.1-0.1-0.2-0.2-0.3-0.3l-0.2-0.2C51.3,1.1,51.1,1,50.9,1l-0.3-0.1 c-0.1,0-0.2,0-0.3,0H3z M50.3,1.8C50.4,1.8,50.4,1.8,50.3,1.8l0.4,0.1c0.1,0,0.1,0,0.2,0.1l0.2,0.2c0.1,0,0.1,0.1,0.1,0.1l0.2,0.2 c0,0,0.1,0.1,0.1,0.2l0.1,0.3c0,0,0,0.1,0,0.1v42.9c0,0,0,0.1,0,0.1l-0.1,0.3c0,0.1,0,0.1-0.1,0.2l-0.2,0.2c0,0-0.1,0.1-0.1,0.1 l-0.2,0.2c0,0-0.1,0.1-0.2,0.1l-0.3,0.1c0,0-0.1,0-0.1,0H3c0,0-0.1,0-0.1,0L2.6,47c-0.1,0-0.1,0-0.2-0.1l-0.2-0.2 c0,0-0.1-0.1-0.1-0.1l-0.2-0.2c0,0-0.1-0.1-0.1-0.2L1.8,46c0,0,0-0.1,0-0.1V3c0,0,0-0.1,0-0.1l0.1-0.3c0-0.1,0-0.1,0.1-0.2l0.2-0.2 c0,0,0.1-0.1,0.1-0.1l0.2-0.2c0,0,0.1-0.1,0.2-0.1l0.3-0.1c0,0,0.1,0,0.1,0H50.3z M3.2,4.5l0.4-0.1l0.5-0.3l0.3-0.5l0.1-0.4v42.4 l-0.1-0.4l-0.3-0.5l-0.5-0.3l-0.4-0.1h46.9l-0.4,0.1l-0.5,0.3l-0.3,0.5l-0.1,0.4V3.2l0.1,0.4l0.3,0.5l0.5,0.3l0.4,0.1H3.2z"></path> <g> <path class="st2" d="M6.6,30.8V7.4h16.9v2.8H9.7v7.2h12.9v2.7H9.7v8H24v2.8H6.6z"></path> </g> <g> <path class="st2" d="M28,42.8V19.5h10.4c2,0,3.3,0.1,4.2,0.4c0.8,0.3,1.5,0.7,2.1,1.1c0.6,0.5,1,1.1,1.5,2c0.4,0.8,0.6,1.8,0.6,2.9 c0,3.6-2.2,5.8-6.6,6.4c0.9,0.4,1.8,1,2.5,1.8c0.7,0.8,1.4,1.6,2,2.5l4.1,6.4h-3.9L41.7,38c-0.8-1.2-1.4-2.2-2-2.9 c-0.5-0.7-1.1-1.3-1.6-1.7c-0.5-0.4-1-0.7-1.5-0.8s-1.1-0.2-1.9-0.2h-3.6v10.4H28z M31.1,29.8h6.6c2.1,0,3.6-0.4,4.4-1.1 c0.9-0.7,1.3-1.7,1.3-2.8c0-2.5-1.7-3.8-5-3.8h-7.4V29.8z"></path> </g> <g> <path class="st1" d="M61.5,13.4V0.4h9.4v1.5h-7.7v4h7.2v1.5h-7.2v4.5h8v1.5H61.5z"></path> <path class="st1" d="M73.5,13.4V0.4h1.7v11.5h6.4v1.5H73.5z"></path> <path class="st1" d="M84.1,13.4V0.4h1.7v13.1H84.1z"></path> <path class="st1" d="M92.2,13.4V1.9h-4.3V0.4h10.3v1.5h-4.3v11.5H92.2z"></path> <path class="st1" d="M100,13.4V0.4h9.4v1.5h-7.7v4h7.2v1.5h-7.2v4.5h8v1.5H100z"></path> </g> <g> <path class="st1" d="M111.2,9.5V7.9h4.9v1.6H111.2z"></path> </g> <g> <path class="st1" d="M118.2,13.4V0.4h5.8c1.1,0,1.9,0.1,2.3,0.2s0.9,0.4,1.2,0.6c0.3,0.3,0.6,0.6,0.8,1.1c0.2,0.5,0.3,1,0.3,1.6 c0,2-1.2,3.2-3.7,3.6c0.5,0.2,1,0.6,1.4,1c0.4,0.4,0.8,0.9,1.1,1.4l2.3,3.5h-2.2l-1.7-2.7c-0.4-0.7-0.8-1.2-1.1-1.6 c-0.3-0.4-0.6-0.7-0.9-0.9c-0.3-0.2-0.6-0.4-0.8-0.4c-0.2-0.1-0.6-0.1-1.1-0.1h-2v5.8H118.2z M119.9,6.1h3.7c1.2,0,2-0.2,2.5-0.6 c0.5-0.4,0.7-0.9,0.7-1.6c0-1.4-0.9-2.1-2.8-2.1h-4.1V6.1z"></path> <path class="st1" d="M131.5,13.4V0.4h9.4v1.5h-7.7v4h7.2v1.5h-7.2v4.5h8v1.5H131.5z"></path> <path class="st1" d="M147.4,13.4l-5.1-13.1h1.9l3.4,9.5c0.2,0.7,0.5,1.4,0.7,2.1c0.2-0.6,0.4-1.3,0.7-2.1l3.5-9.5h1.8l-5.1,13.1 H147.4z"></path> <path class="st1" d="M156.1,13.4V0.4h1.7v13.1H156.1z"></path> <path class="st1" d="M160.3,9.2l1.6-0.1c0.1,1,0.5,1.8,1.3,2.3s1.6,0.7,2.6,0.7c1.1,0,1.9-0.2,2.4-0.6s0.8-1,0.8-1.6 c0-0.4-0.1-0.8-0.4-1.1S168,8.2,167.5,8c-0.5-0.2-1.3-0.4-2.5-0.7c-0.9-0.2-1.6-0.4-2.2-0.7s-1.1-0.6-1.5-1.1 c-0.4-0.5-0.6-1.1-0.6-1.8c0-0.7,0.2-1.4,0.5-1.9c0.4-0.5,0.9-0.9,1.6-1.2c0.7-0.3,1.5-0.5,2.4-0.5c1.6,0,2.8,0.4,3.6,1.1 c0.8,0.7,1.3,1.7,1.3,2.8l-1.7,0.1c-0.2-1.7-1.2-2.5-3.2-2.5c-2,0-3,0.7-3,2c0,0.4,0.1,0.7,0.4,1c0.2,0.3,0.6,0.5,0.9,0.6 c0.4,0.1,1,0.3,1.8,0.5c1.4,0.3,2.4,0.6,2.9,0.8c0.5,0.2,0.9,0.5,1.2,0.8c0.3,0.3,0.6,0.7,0.7,1.1c0.2,0.4,0.2,0.8,0.2,1.3 c0,1.2-0.5,2.2-1.4,2.9c-0.9,0.7-2.1,1-3.4,1c-1.8,0-3.2-0.4-4.1-1.2C160.8,11.6,160.3,10.6,160.3,9.2z"></path> <path class="st1" d="M173.3,13.4V0.4h1.7v13.1H173.3z"></path> <path class="st1" d="M177.6,7.1c0-1.3,0.2-2.5,0.7-3.5c0.5-1,1.2-1.9,2.1-2.5s2.1-0.9,3.5-0.9c0.9,0,1.7,0.2,2.5,0.5 c0.8,0.3,1.4,0.8,2,1.4c0.6,0.6,1,1.3,1.3,2.1c0.3,0.8,0.5,1.8,0.5,2.8c0,1.4-0.3,2.6-0.8,3.6c-0.5,1-1.3,1.8-2.3,2.3 c-1,0.6-2.1,0.8-3.2,0.8c-1.2,0-2.3-0.3-3.3-0.9c-1-0.6-1.7-1.4-2.2-2.4C177.9,9.4,177.6,8.3,177.6,7.1z M179.4,7.1 c0,1,0.2,1.9,0.6,2.7c0.4,0.8,0.9,1.4,1.6,1.8c0.7,0.4,1.4,0.6,2.3,0.6c1.4,0,2.5-0.5,3.3-1.5c0.8-1,1.2-2.2,1.2-3.8 c0-1.1-0.2-2-0.6-2.8c-0.4-0.8-0.9-1.4-1.5-1.8s-1.4-0.6-2.3-0.6c-0.7,0-1.4,0.1-1.9,0.4c-0.6,0.2-1,0.6-1.4,1.1 c-0.4,0.5-0.7,1.1-0.9,1.7C179.5,5.5,179.4,6.2,179.4,7.1z"></path> <path class="st1" d="M192.3,13.4V0.4h1.8l6.9,10.3V0.4h1.7v13.1h-1.8L194,3.2v10.3H192.3z"></path> <path class="st1" d="M210.3,13.4l5-13.1h1.9l5.4,13.1h-2l-1.5-4h-5.5l-1.4,4H210.3z M214.1,8.1h4.4l-1.4-3.6 c-0.5-1.2-0.8-2.1-0.9-2.7c-0.2,0.8-0.4,1.7-0.7,2.5L214.1,8.1z"></path> <path class="st1" d="M223.7,17.1V4h1.5v1.2c0.7-1,1.6-1.4,2.7-1.4c1.3,0,2.3,0.5,3,1.4c0.7,1,1,2.1,1,3.4c0,1.7-0.4,2.9-1.3,3.8 s-1.8,1.3-2.9,1.3c-1,0-1.9-0.4-2.5-1.2v4.6H223.7z M225.2,8.7c0,0.7,0.1,1.4,0.3,1.9c0.2,0.5,0.5,1,0.9,1.2 c0.4,0.3,0.8,0.4,1.4,0.4c0.9,0,1.5-0.4,1.9-1.1s0.7-1.6,0.7-2.6c0-1.1-0.2-1.9-0.7-2.6s-1.1-1-1.8-1c-0.8,0-1.5,0.4-1.9,1.1 C225.4,6.8,225.2,7.7,225.2,8.7z"></path> <path class="st1" d="M233.5,9.2l1.6-0.1c0.1,1,0.5,1.8,1.3,2.3s1.6,0.7,2.6,0.7c1.1,0,1.9-0.2,2.4-0.6s0.8-1,0.8-1.6 c0-0.4-0.1-0.8-0.4-1.1s-0.6-0.6-1.1-0.7c-0.5-0.2-1.3-0.4-2.5-0.7c-0.9-0.2-1.6-0.4-2.2-0.7s-1.1-0.6-1.5-1.1 C234.2,5,234,4.4,234,3.7c0-0.7,0.2-1.4,0.5-1.9c0.4-0.5,0.9-0.9,1.6-1.2c0.7-0.3,1.5-0.5,2.4-0.5c1.6,0,2.8,0.4,3.6,1.1 c0.8,0.7,1.3,1.7,1.3,2.8l-1.7,0.1c-0.2-1.7-1.2-2.5-3.2-2.5c-2,0-3,0.7-3,2c0,0.4,0.1,0.7,0.4,1c0.2,0.3,0.6,0.5,0.9,0.6 c0.4,0.1,1,0.3,1.8,0.5c1.4,0.3,2.4,0.6,2.9,0.8c0.5,0.2,0.9,0.5,1.2,0.8c0.3,0.3,0.6,0.7,0.7,1.1c0.2,0.4,0.2,0.8,0.2,1.3 c0,1.2-0.5,2.2-1.4,2.9c-0.9,0.7-2.1,1-3.4,1c-1.8,0-3.2-0.4-4.1-1.2C234,11.6,233.6,10.6,233.5,9.2z"></path> </g> <g> <path class="st1" d="M60.9,30.1v-8.2h3.6c0.7,0,1.2,0,1.5,0.1c0.3,0.1,0.5,0.2,0.7,0.4s0.4,0.4,0.5,0.7c0.1,0.3,0.2,0.6,0.2,1 c0,1.3-0.8,2-2.3,2.2c0.3,0.1,0.6,0.3,0.9,0.6c0.3,0.3,0.5,0.6,0.7,0.9l1.4,2.2h-1.4l-1.1-1.7c-0.3-0.4-0.5-0.8-0.7-1 c-0.2-0.2-0.4-0.4-0.6-0.6s-0.4-0.2-0.5-0.3c-0.2,0-0.4-0.1-0.7-0.1H62v3.6H60.9z M62,25.5h2.3c0.7,0,1.3-0.1,1.6-0.4 c0.3-0.3,0.5-0.6,0.5-1c0-0.9-0.6-1.3-1.8-1.3H62V25.5z"></path> <path class="st1" d="M73.1,28.2l1,0.1c-0.3,1.3-1.2,1.9-2.6,1.9c-0.6,0-1.1-0.1-1.5-0.4s-0.7-0.6-1-1c-0.2-0.5-0.3-1-0.3-1.6 c0-1,0.2-1.7,0.7-2.3s1.2-0.9,2-0.9c0.2,0,0.4,0,0.5,0c0.2,0,0.3,0.1,0.5,0.1c0.2,0.1,0.3,0.1,0.4,0.2c0.1,0.1,0.3,0.2,0.4,0.3 c0.1,0.1,0.2,0.3,0.3,0.4c0.1,0.1,0.2,0.3,0.3,0.5c0.1,0.2,0.1,0.3,0.2,0.5c0,0.2,0.1,0.4,0.1,0.6c0,0.1,0,0.3,0,0.7h-4.4 c0,0.6,0.2,1.1,0.5,1.5s0.7,0.5,1.3,0.5C72.3,29.4,72.8,29,73.1,28.2z M69.8,26.6h3.3c0-0.6-0.2-1-0.5-1.3 c-0.3-0.3-0.7-0.4-1.1-0.4c-0.3,0-0.6,0.1-0.8,0.2s-0.4,0.3-0.6,0.6C69.9,25.9,69.8,26.2,69.8,26.6z"></path> <path class="st1" d="M75.2,30.6l1,0.1c0.1,0.6,0.5,0.9,1.4,0.9c0.3,0,0.6,0,0.8-0.1c0.2-0.1,0.4-0.2,0.5-0.4 c0.1-0.2,0.2-0.4,0.3-0.6c0-0.2,0.1-0.6,0.1-1.3c-0.4,0.5-1,0.8-1.6,0.8c-0.5,0-1-0.1-1.3-0.4c-0.4-0.3-0.7-0.6-0.9-1 c-0.2-0.4-0.3-1-0.3-1.6c0-0.9,0.2-1.7,0.7-2.2c0.5-0.6,1.1-0.8,1.9-0.8c0.7,0,1.3,0.3,1.7,0.8v-0.7h0.9v5.1c0,0.7-0.1,1.3-0.2,1.6 c-0.1,0.3-0.3,0.6-0.5,0.9c-0.2,0.2-0.5,0.4-0.8,0.5c-0.3,0.1-0.7,0.2-1.2,0.2c-0.8,0-1.4-0.2-1.8-0.5 C75.4,31.6,75.2,31.2,75.2,30.6z M76.1,27c0,1.5,0.5,2.2,1.6,2.2c0.5,0,0.9-0.2,1.2-0.6s0.4-0.9,0.4-1.6c0-0.7-0.1-1.2-0.4-1.6 c-0.3-0.4-0.7-0.6-1.2-0.6c-0.5,0-0.9,0.2-1.2,0.6C76.2,25.9,76.1,26.4,76.1,27z"></path> <path class="st1" d="M81.8,23.1v-1.1h1v1.1H81.8z M81.8,30.1v-5.9h1v5.9H81.8z"></path> <path class="st1" d="M83.9,28.3l1-0.2c0.1,0.8,0.6,1.2,1.5,1.2c0.9,0,1.4-0.3,1.4-0.9c0-0.2-0.1-0.4-0.2-0.5 c-0.2-0.1-0.5-0.2-1.1-0.4c-0.4-0.1-0.7-0.2-1-0.3c-0.3-0.1-0.5-0.2-0.8-0.4s-0.4-0.3-0.5-0.5c-0.1-0.2-0.2-0.4-0.2-0.7 c0-0.3,0.1-0.6,0.2-0.8c0.1-0.2,0.4-0.5,0.7-0.6c0.3-0.2,0.7-0.3,1.3-0.3c0.5,0,0.9,0.1,1.2,0.2c0.3,0.1,0.6,0.3,0.8,0.5 c0.2,0.2,0.3,0.6,0.4,1l-1,0.1c-0.1-0.6-0.5-1-1.3-1c-0.9,0-1.3,0.3-1.3,0.8c0,0.1,0,0.3,0.1,0.4s0.2,0.2,0.3,0.2 c0.1,0,0.4,0.1,1,0.3c0.1,0,0.4,0.1,0.9,0.2c0.5,0.1,0.8,0.3,1.1,0.6c0.2,0.3,0.4,0.6,0.4,1c0,0.6-0.2,1-0.7,1.4s-1,0.5-1.7,0.5 C85,30.2,84.2,29.6,83.9,28.3z"></path> <path class="st1" d="M92.3,29.2l0.1,0.9c-0.3,0.1-0.5,0.1-0.8,0.1c-0.3,0-0.6,0-0.8-0.1s-0.4-0.2-0.5-0.4c-0.1-0.2-0.1-0.6-0.1-1.3 V25h-0.7v-0.8h0.7v-1.5l1-0.6v2.1h1V25h-1v3.5c0,0.3,0,0.4,0.1,0.5s0.1,0.2,0.2,0.2c0.1,0,0.2,0.1,0.3,0.1 C91.9,29.2,92.1,29.2,92.3,29.2z"></path> <path class="st1" d="M93.2,30.1v-5.9h0.9v0.9c0.4-0.7,0.8-1,1.3-1c0.3,0,0.7,0.1,1,0.3l-0.3,0.9c-0.2-0.1-0.5-0.2-0.7-0.2 c-0.3,0-0.5,0.1-0.6,0.2s-0.3,0.4-0.4,0.7c-0.1,0.3-0.1,0.7-0.1,1v3.1H93.2z"></path> <path class="st1" d="M101.1,28.2l1,0.1c-0.3,1.3-1.2,1.9-2.6,1.9c-0.6,0-1.1-0.1-1.5-0.4s-0.7-0.6-1-1c-0.2-0.5-0.3-1-0.3-1.6 c0-1,0.2-1.7,0.7-2.3s1.2-0.9,2-0.9c0.2,0,0.4,0,0.5,0c0.2,0,0.3,0.1,0.5,0.1c0.2,0.1,0.3,0.1,0.4,0.2c0.1,0.1,0.3,0.2,0.4,0.3 c0.1,0.1,0.2,0.3,0.3,0.4c0.1,0.1,0.2,0.3,0.3,0.5c0.1,0.2,0.1,0.3,0.2,0.5c0,0.2,0.1,0.4,0.1,0.6c0,0.1,0,0.3,0,0.7h-4.4 c0,0.6,0.2,1.1,0.5,1.5s0.7,0.5,1.3,0.5C100.3,29.4,100.8,29,101.1,28.2z M97.8,26.6h3.3c0-0.6-0.2-1-0.5-1.3 c-0.3-0.3-0.7-0.4-1.1-0.4c-0.3,0-0.6,0.1-0.8,0.2s-0.4,0.3-0.6,0.6C97.9,25.9,97.8,26.2,97.8,26.6z"></path> <path class="st1" d="M103.4,30.1v-5.9h0.9v0.9c0.4-0.7,0.8-1,1.3-1c0.3,0,0.7,0.1,1,0.3l-0.3,0.9c-0.2-0.1-0.5-0.2-0.7-0.2 c-0.3,0-0.5,0.1-0.6,0.2s-0.3,0.4-0.4,0.7c-0.1,0.3-0.1,0.7-0.1,1v3.1H103.4z"></path> <path class="st1" d="M111.3,28.2l1,0.1c-0.3,1.3-1.2,1.9-2.6,1.9c-0.6,0-1.1-0.1-1.5-0.4s-0.7-0.6-1-1c-0.2-0.5-0.3-1-0.3-1.6 c0-1,0.2-1.7,0.7-2.3s1.2-0.9,2-0.9c0.2,0,0.4,0,0.5,0c0.2,0,0.3,0.1,0.5,0.1c0.2,0.1,0.3,0.1,0.4,0.2c0.1,0.1,0.3,0.2,0.4,0.3 c0.1,0.1,0.2,0.3,0.3,0.4c0.1,0.1,0.2,0.3,0.3,0.5c0.1,0.2,0.1,0.3,0.2,0.5c0,0.2,0.1,0.4,0.1,0.6c0,0.1,0,0.3,0,0.7h-4.4 c0,0.6,0.2,1.1,0.5,1.5s0.7,0.5,1.3,0.5C110.5,29.4,111,29,111.3,28.2z M108,26.6h3.3c0-0.6-0.2-1-0.5-1.3 c-0.3-0.3-0.7-0.4-1.1-0.4c-0.3,0-0.6,0.1-0.8,0.2s-0.4,0.3-0.6,0.6C108.1,25.9,108,26.2,108,26.6z"></path> <path class="st1" d="M115.8,29.2l0.1,0.9c-0.3,0.1-0.5,0.1-0.8,0.1c-0.3,0-0.6,0-0.8-0.1s-0.4-0.2-0.5-0.4 c-0.1-0.2-0.1-0.6-0.1-1.3V25h-0.7v-0.8h0.7v-1.5l1-0.6v2.1h1V25h-1v3.5c0,0.3,0,0.4,0.1,0.5s0.1,0.2,0.2,0.2 c0.1,0,0.2,0.1,0.3,0.1C115.5,29.2,115.6,29.2,115.8,29.2z"></path> <path class="st1" d="M120.6,30.1v-5.9h0.9v0.9c0.4-0.7,0.8-1,1.3-1c0.3,0,0.7,0.1,1,0.3l-0.3,0.9c-0.2-0.1-0.5-0.2-0.7-0.2 c-0.3,0-0.5,0.1-0.6,0.2s-0.3,0.4-0.4,0.7c-0.1,0.3-0.1,0.7-0.1,1v3.1H120.6z"></path> <path class="st1" d="M128.5,28.2l1,0.1c-0.3,1.3-1.2,1.9-2.6,1.9c-0.6,0-1.1-0.1-1.5-0.4s-0.7-0.6-1-1c-0.2-0.5-0.3-1-0.3-1.6 c0-1,0.2-1.7,0.7-2.3s1.2-0.9,2-0.9c0.2,0,0.4,0,0.5,0c0.2,0,0.3,0.1,0.5,0.1c0.2,0.1,0.3,0.1,0.4,0.2c0.1,0.1,0.3,0.2,0.4,0.3 c0.1,0.1,0.2,0.3,0.3,0.4c0.1,0.1,0.2,0.3,0.3,0.5c0.1,0.2,0.1,0.3,0.2,0.5c0,0.2,0.1,0.4,0.1,0.6c0,0.1,0,0.3,0,0.7h-4.4 c0,0.6,0.2,1.1,0.5,1.5s0.7,0.5,1.3,0.5C127.6,29.4,128.2,29,128.5,28.2z M125.1,26.6h3.3c0-0.6-0.2-1-0.5-1.3 c-0.3-0.3-0.7-0.4-1.1-0.4c-0.3,0-0.6,0.1-0.8,0.2s-0.4,0.3-0.6,0.6C125.3,25.9,125.2,26.2,125.1,26.6z"></path> <path class="st1" d="M132.4,30.1l-2.3-5.9h1.1l1.3,3.6c0.1,0.4,0.3,0.8,0.4,1.2c0.1-0.3,0.2-0.7,0.4-1.1l1.3-3.6h1l-2.3,5.9H132.4z "></path> <path class="st1" d="M136.5,23.1v-1.1h1v1.1H136.5z M136.5,30.1v-5.9h1v5.9H136.5z"></path> <path class="st1" d="M138.7,28.3l1-0.2c0.1,0.8,0.6,1.2,1.5,1.2c0.9,0,1.4-0.3,1.4-0.9c0-0.2-0.1-0.4-0.2-0.5 c-0.2-0.1-0.5-0.2-1.1-0.4c-0.4-0.1-0.7-0.2-1-0.3c-0.3-0.1-0.5-0.2-0.8-0.4s-0.4-0.3-0.5-0.5c-0.1-0.2-0.2-0.4-0.2-0.7 c0-0.3,0.1-0.6,0.2-0.8c0.1-0.2,0.4-0.5,0.7-0.6c0.3-0.2,0.7-0.3,1.3-0.3c0.5,0,0.9,0.1,1.2,0.2c0.3,0.1,0.6,0.3,0.8,0.5 c0.2,0.2,0.3,0.6,0.4,1l-1,0.1c-0.1-0.6-0.5-1-1.3-1c-0.9,0-1.3,0.3-1.3,0.8c0,0.1,0,0.3,0.1,0.4s0.2,0.2,0.3,0.2 c0.1,0,0.4,0.1,1,0.3c0.1,0,0.4,0.1,0.9,0.2c0.5,0.1,0.8,0.3,1.1,0.6c0.2,0.3,0.4,0.6,0.4,1c0,0.6-0.2,1-0.7,1.4s-1,0.5-1.7,0.5 C139.7,30.2,138.9,29.6,138.7,28.3z"></path> <path class="st1" d="M144.8,23.1v-1.1h1v1.1H144.8z M144.8,30.1v-5.9h1v5.9H144.8z"></path> <path class="st1" d="M147,27.1c0-1,0.3-1.8,0.8-2.3s1.2-0.8,2-0.8c0.5,0,1,0.1,1.4,0.3c0.4,0.2,0.7,0.5,1,1c0.3,0.5,0.4,1,0.4,1.7 c0,1.1-0.3,1.9-0.8,2.4c-0.5,0.5-1.2,0.8-2,0.8c-0.6,0-1.1-0.1-1.5-0.4c-0.4-0.2-0.7-0.6-1-1.1C147.1,28.3,147,27.8,147,27.1z M148,27.1c0,0.5,0.1,0.9,0.2,1.2s0.3,0.6,0.6,0.8c0.3,0.2,0.6,0.3,0.9,0.3c0.6,0,1-0.2,1.3-0.6c0.3-0.4,0.4-1,0.4-1.7 c0-0.7-0.2-1.2-0.5-1.6c-0.3-0.4-0.7-0.6-1.3-0.6c-0.6,0-1,0.2-1.3,0.6C148.1,25.9,148,26.5,148,27.1z"></path> <path class="st1" d="M153.7,30.1v-5.9h0.9V25c0.4-0.7,1.1-1,1.9-1c1.3,0,2,0.7,2,2.2v3.9h-1v-3.6c0-1.1-0.4-1.6-1.2-1.6 c-1.1,0-1.6,0.7-1.6,2v3.2H153.7z"></path> <path class="st1" d="M159.7,28.3l1-0.2c0.1,0.8,0.6,1.2,1.5,1.2c0.9,0,1.4-0.3,1.4-0.9c0-0.2-0.1-0.4-0.2-0.5 c-0.2-0.1-0.5-0.2-1.1-0.4c-0.4-0.1-0.7-0.2-1-0.3c-0.3-0.1-0.5-0.2-0.8-0.4s-0.4-0.3-0.5-0.5c-0.1-0.2-0.2-0.4-0.2-0.7 c0-0.3,0.1-0.6,0.2-0.8c0.1-0.2,0.4-0.5,0.7-0.6c0.3-0.2,0.7-0.3,1.3-0.3c0.5,0,0.9,0.1,1.2,0.2c0.3,0.1,0.6,0.3,0.8,0.5 c0.2,0.2,0.3,0.6,0.4,1l-1,0.1c-0.1-0.6-0.5-1-1.3-1c-0.9,0-1.3,0.3-1.3,0.8c0,0.1,0,0.3,0.1,0.4s0.2,0.2,0.3,0.2 c0.1,0,0.4,0.1,1,0.3c0.1,0,0.4,0.1,0.9,0.2c0.5,0.1,0.8,0.3,1.1,0.6c0.2,0.3,0.4,0.6,0.4,1c0,0.6-0.2,1-0.7,1.4s-1,0.5-1.7,0.5 C160.7,30.2,159.9,29.6,159.7,28.3z"></path> <path class="st1" d="M167.3,30.1l-2.3-5.9h1.1l1.3,3.6c0.1,0.4,0.3,0.8,0.4,1.2c0.1-0.3,0.2-0.7,0.4-1.1l1.3-3.6h1l-2.3,5.9H167.3z "></path> <path class="st1" d="M171.4,23.1v-1.1h1v1.1H171.4z M171.4,30.1v-5.9h1v5.9H171.4z"></path> <path class="st1" d="M174,30.1v-5.9h0.9v0.9c0.4-0.7,0.8-1,1.3-1c0.3,0,0.7,0.1,1,0.3l-0.3,0.9c-0.2-0.1-0.5-0.2-0.7-0.2 c-0.3,0-0.5,0.1-0.6,0.2s-0.3,0.4-0.4,0.7c-0.1,0.3-0.1,0.7-0.1,1v3.1H174z"></path> <path class="st1" d="M177.8,30.1v-8.2h1v4.7l2.4-2.4h1.3l-2.3,2.2l2.5,3.7h-1.3l-2-3l-0.7,0.7v2.4H177.8z"></path> <path class="st1" d="M183.1,28.3l1-0.2c0.1,0.8,0.6,1.2,1.5,1.2c0.9,0,1.4-0.3,1.4-0.9c0-0.2-0.1-0.4-0.2-0.5 c-0.2-0.1-0.5-0.2-1.1-0.4c-0.4-0.1-0.7-0.2-1-0.3c-0.3-0.1-0.5-0.2-0.8-0.4s-0.4-0.3-0.5-0.5c-0.1-0.2-0.2-0.4-0.2-0.7 c0-0.3,0.1-0.6,0.2-0.8c0.1-0.2,0.4-0.5,0.7-0.6c0.3-0.2,0.7-0.3,1.3-0.3c0.5,0,0.9,0.1,1.2,0.2c0.3,0.1,0.6,0.3,0.8,0.5 c0.2,0.2,0.3,0.6,0.4,1l-1,0.1c-0.1-0.6-0.5-1-1.3-1c-0.9,0-1.3,0.3-1.3,0.8c0,0.1,0,0.3,0.1,0.4s0.2,0.2,0.3,0.2 c0.1,0,0.4,0.1,1,0.3c0.1,0,0.4,0.1,0.9,0.2c0.5,0.1,0.8,0.3,1.1,0.6c0.2,0.3,0.4,0.6,0.4,1c0,0.6-0.2,1-0.7,1.4s-1,0.5-1.7,0.5 C184.2,30.2,183.3,29.6,183.1,28.3z"></path> <path class="st1" d="M188.8,27.1c0-1,0.3-1.8,0.8-2.3s1.2-0.8,2-0.8c0.5,0,1,0.1,1.4,0.3c0.4,0.2,0.7,0.5,1,1 c0.3,0.5,0.4,1,0.4,1.7c0,1.1-0.3,1.9-0.8,2.4c-0.5,0.5-1.2,0.8-2,0.8c-0.6,0-1.1-0.1-1.5-0.4c-0.4-0.2-0.7-0.6-1-1.1 C189,28.3,188.8,27.8,188.8,27.1z M189.9,27.1c0,0.5,0.1,0.9,0.2,1.2s0.3,0.6,0.6,0.8c0.3,0.2,0.6,0.3,0.9,0.3c0.6,0,1-0.2,1.3-0.6 c0.3-0.4,0.4-1,0.4-1.7c0-0.7-0.2-1.2-0.5-1.6c-0.3-0.4-0.7-0.6-1.3-0.6c-0.6,0-1,0.2-1.3,0.6C190,25.9,189.9,26.5,189.9,27.1z"></path> <path class="st1" d="M195.6,30.1v-5.9h0.9V25c0.4-0.6,1-1,1.8-1c0.9,0,1.4,0.3,1.7,1c0.5-0.7,1.1-1,1.8-1c1.2,0,1.8,0.7,1.8,2v4.1 h-1v-3.7c0-1-0.4-1.5-1.1-1.5c-1,0-1.5,0.6-1.5,1.7v3.5h-1v-3.9c0-0.9-0.4-1.3-1.1-1.3c-0.3,0-0.6,0.1-0.8,0.2 c-0.2,0.1-0.4,0.4-0.5,0.7c-0.1,0.3-0.2,0.7-0.2,1.2v3.1H195.6z"></path> <path class="st1" d="M205.1,30.1v-8.2h1v2.9c0.5-0.5,1.1-0.8,1.8-0.8c0.5,0,0.9,0.1,1.3,0.3c0.3,0.2,0.5,0.5,0.6,0.8 c0.1,0.3,0.2,0.7,0.2,1.2v3.8h-1v-3.8c0-1-0.4-1.4-1.3-1.4c-0.4,0-0.7,0.1-0.9,0.3c-0.2,0.2-0.4,0.4-0.5,0.7 c-0.1,0.3-0.1,0.6-0.1,1v3.2H205.1z"></path> <path class="st1" d="M215.5,28.2l1,0.1c-0.3,1.3-1.2,1.9-2.6,1.9c-0.6,0-1.1-0.1-1.5-0.4s-0.7-0.6-1-1c-0.2-0.5-0.3-1-0.3-1.6 c0-1,0.2-1.7,0.7-2.3s1.2-0.9,2-0.9c0.2,0,0.4,0,0.5,0c0.2,0,0.3,0.1,0.5,0.1c0.2,0.1,0.3,0.1,0.4,0.2c0.1,0.1,0.3,0.2,0.4,0.3 c0.1,0.1,0.2,0.3,0.3,0.4c0.1,0.1,0.2,0.3,0.3,0.5c0.1,0.2,0.1,0.3,0.2,0.5c0,0.2,0.1,0.4,0.1,0.6c0,0.1,0,0.3,0,0.7h-4.4 c0,0.6,0.2,1.1,0.5,1.5s0.7,0.5,1.3,0.5C214.7,29.4,215.2,29,215.5,28.2z M212.2,26.6h3.3c0-0.6-0.2-1-0.5-1.3 c-0.3-0.3-0.7-0.4-1.1-0.4c-0.3,0-0.6,0.1-0.8,0.2s-0.4,0.3-0.6,0.6C212.3,25.9,212.3,26.2,212.2,26.6z"></path> <path class="st1" d="M221.7,30.1v-0.7c-0.4,0.6-0.9,0.9-1.7,0.9c-0.8,0-1.4-0.3-1.9-0.9c-0.5-0.6-0.7-1.3-0.7-2.2 c0-0.6,0.1-1.2,0.3-1.7s0.5-0.8,0.9-1.1c0.4-0.2,0.8-0.4,1.3-0.4c0.7,0,1.2,0.3,1.6,0.8v-2.9h1v8.2H221.7z M218.5,27.1 c0,0.4,0.1,0.8,0.2,1.2s0.3,0.6,0.6,0.8s0.5,0.3,0.9,0.3c0.5,0,0.9-0.2,1.2-0.6s0.4-0.9,0.4-1.6c0-0.7-0.1-1.3-0.4-1.7 c-0.3-0.4-0.7-0.6-1.2-0.6C219,24.9,218.5,25.6,218.5,27.1z"></path> </g> <g> <text transform="matrix(1 0 0 1 223.3709 30.1097)" class="st1 st3 st4"> </text> </g> <g> <path class="st1" d="M60.9,46.6v-8.2h3.6c0.7,0,1.2,0,1.5,0.1c0.3,0.1,0.5,0.2,0.7,0.4s0.4,0.4,0.5,0.7c0.1,0.3,0.2,0.6,0.2,1 c0,1.3-0.8,2-2.3,2.2c0.3,0.1,0.6,0.3,0.9,0.6s0.5,0.6,0.7,0.9l1.4,2.2h-1.4l-1.1-1.7c-0.3-0.4-0.5-0.8-0.7-1 c-0.2-0.2-0.4-0.4-0.6-0.6c-0.2-0.1-0.4-0.2-0.5-0.3s-0.4-0.1-0.7-0.1H62v3.6H60.9z M62,42h2.3c0.7,0,1.2-0.1,1.6-0.4 c0.3-0.3,0.5-0.6,0.5-1c0-0.9-0.6-1.3-1.8-1.3H62V42z"></path> <path class="st1" d="M73.1,44.7l1,0.1c-0.3,1.3-1.2,1.9-2.6,1.9c-0.6,0-1.1-0.1-1.5-0.4c-0.4-0.2-0.7-0.6-1-1 c-0.2-0.5-0.3-1-0.3-1.6c0-1,0.2-1.7,0.7-2.3c0.5-0.6,1.2-0.9,2-0.9c0.2,0,0.4,0,0.5,0c0.2,0,0.3,0.1,0.5,0.1 c0.2,0.1,0.3,0.1,0.4,0.2c0.1,0.1,0.3,0.2,0.4,0.3c0.1,0.1,0.2,0.3,0.3,0.4c0.1,0.1,0.2,0.3,0.3,0.5c0.1,0.2,0.1,0.3,0.2,0.5 c0,0.2,0.1,0.4,0.1,0.6c0,0.1,0,0.3,0,0.7h-4.4c0,0.6,0.2,1.1,0.5,1.5c0.3,0.4,0.7,0.5,1.3,0.5C72.3,45.9,72.8,45.5,73.1,44.7z M69.8,43h3.3c0-0.6-0.2-1-0.5-1.3c-0.3-0.3-0.7-0.4-1.1-0.4c-0.3,0-0.6,0.1-0.8,0.2c-0.2,0.1-0.4,0.3-0.6,0.6 C69.9,42.4,69.8,42.7,69.8,43z"></path> <path class="st1" d="M75.2,47.1l1,0.1c0.1,0.6,0.5,0.9,1.4,0.9c0.3,0,0.6,0,0.8-0.1s0.4-0.2,0.5-0.4c0.1-0.2,0.2-0.4,0.3-0.6 c0-0.2,0.1-0.6,0.1-1.3c-0.4,0.5-1,0.8-1.6,0.8c-0.5,0-1-0.1-1.3-0.4c-0.4-0.3-0.7-0.6-0.9-1s-0.3-1-0.3-1.6c0-0.9,0.2-1.7,0.7-2.2 s1.1-0.8,1.9-0.8c0.7,0,1.3,0.3,1.7,0.8v-0.7h0.9v5.1c0,0.7-0.1,1.3-0.2,1.6c-0.1,0.3-0.3,0.6-0.5,0.9s-0.5,0.4-0.8,0.5 C78.4,48.9,78,49,77.6,49c-0.8,0-1.4-0.2-1.8-0.5C75.4,48.1,75.2,47.6,75.2,47.1z M76.1,43.5c0,1.5,0.5,2.2,1.6,2.2 c0.5,0,0.9-0.2,1.2-0.6s0.4-0.9,0.4-1.6c0-0.7-0.1-1.2-0.4-1.6c-0.3-0.4-0.7-0.6-1.2-0.6c-0.5,0-0.9,0.2-1.2,0.6 C76.2,42.4,76.1,42.9,76.1,43.5z"></path> <path class="st1" d="M81.8,39.5v-1.1h1v1.1H81.8z M81.8,46.6v-5.9h1v5.9H81.8z"></path> <path class="st1" d="M83.9,44.8l1-0.2c0.1,0.8,0.6,1.2,1.5,1.2s1.4-0.3,1.4-0.9c0-0.2-0.1-0.4-0.2-0.5c-0.2-0.1-0.5-0.2-1.1-0.4 c-0.4-0.1-0.7-0.2-1-0.3s-0.5-0.2-0.8-0.4c-0.2-0.2-0.4-0.3-0.5-0.5c-0.1-0.2-0.2-0.4-0.2-0.7c0-0.3,0.1-0.6,0.2-0.8 c0.1-0.2,0.4-0.5,0.7-0.6s0.7-0.3,1.3-0.3c0.5,0,0.9,0.1,1.2,0.2c0.3,0.1,0.6,0.3,0.8,0.5c0.2,0.2,0.3,0.6,0.4,1l-1,0.1 c-0.1-0.6-0.5-1-1.3-1c-0.9,0-1.3,0.3-1.3,0.8c0,0.1,0,0.3,0.1,0.4s0.2,0.2,0.3,0.2c0.1,0,0.4,0.1,1,0.3c0.1,0,0.4,0.1,0.9,0.2 c0.5,0.1,0.8,0.3,1.1,0.6s0.4,0.6,0.4,1c0,0.6-0.2,1-0.7,1.4c-0.5,0.3-1,0.5-1.7,0.5C85,46.7,84.1,46.1,83.9,44.8z"></path> <path class="st1" d="M92.2,45.7l0.1,0.9c-0.3,0.1-0.5,0.1-0.8,0.1c-0.3,0-0.6,0-0.8-0.1c-0.2-0.1-0.4-0.2-0.5-0.4 c-0.1-0.2-0.1-0.6-0.1-1.2v-3.4h-0.7v-0.8h0.7v-1.5l1-0.6v2.1h1v0.8h-1v3.5c0,0.3,0,0.4,0.1,0.5c0,0.1,0.1,0.2,0.2,0.2 s0.2,0.1,0.3,0.1C91.9,45.7,92,45.7,92.2,45.7z"></path> <path class="st1" d="M93.2,46.6v-5.9h0.9v0.9c0.4-0.7,0.8-1,1.3-1c0.3,0,0.7,0.1,1,0.3l-0.3,0.9c-0.2-0.1-0.5-0.2-0.7-0.2 c-0.3,0-0.5,0.1-0.6,0.2c-0.2,0.1-0.3,0.4-0.4,0.7c-0.1,0.3-0.1,0.7-0.1,1v3.1H93.2z"></path> <path class="st1" d="M101.1,44.7l1,0.1c-0.3,1.3-1.2,1.9-2.6,1.9c-0.6,0-1.1-0.1-1.5-0.4c-0.4-0.2-0.7-0.6-1-1 c-0.2-0.5-0.3-1-0.3-1.6c0-1,0.2-1.7,0.7-2.3c0.5-0.6,1.2-0.9,2-0.9c0.2,0,0.4,0,0.5,0c0.2,0,0.3,0.1,0.5,0.1 c0.2,0.1,0.3,0.1,0.4,0.2c0.1,0.1,0.3,0.2,0.4,0.3c0.1,0.1,0.2,0.3,0.3,0.4c0.1,0.1,0.2,0.3,0.3,0.5c0.1,0.2,0.1,0.3,0.2,0.5 c0,0.2,0.1,0.4,0.1,0.6c0,0.1,0,0.3,0,0.7h-4.4c0,0.6,0.2,1.1,0.5,1.5c0.3,0.4,0.7,0.5,1.3,0.5C100.3,45.9,100.8,45.5,101.1,44.7z M97.8,43h3.3c0-0.6-0.2-1-0.5-1.3c-0.3-0.3-0.7-0.4-1.1-0.4c-0.3,0-0.6,0.1-0.8,0.2c-0.2,0.1-0.4,0.3-0.6,0.6 C97.9,42.4,97.8,42.7,97.8,43z"></path> <path class="st1" d="M103.4,46.6v-5.9h0.9v0.9c0.4-0.7,0.8-1,1.3-1c0.3,0,0.7,0.1,1,0.3l-0.3,0.9c-0.2-0.1-0.5-0.2-0.7-0.2 c-0.3,0-0.5,0.1-0.6,0.2c-0.2,0.1-0.3,0.4-0.4,0.7c-0.1,0.3-0.1,0.7-0.1,1v3.1H103.4z"></path> <path class="st1" d="M111.2,44.7l1,0.1c-0.3,1.3-1.2,1.9-2.6,1.9c-0.6,0-1.1-0.1-1.5-0.4c-0.4-0.2-0.7-0.6-1-1 c-0.2-0.5-0.3-1-0.3-1.6c0-1,0.2-1.7,0.7-2.3c0.5-0.6,1.2-0.9,2-0.9c0.2,0,0.4,0,0.5,0c0.2,0,0.3,0.1,0.5,0.1 c0.2,0.1,0.3,0.1,0.4,0.2c0.1,0.1,0.3,0.2,0.4,0.3c0.1,0.1,0.2,0.3,0.3,0.4c0.1,0.1,0.2,0.3,0.3,0.5c0.1,0.2,0.1,0.3,0.2,0.5 c0,0.2,0.1,0.4,0.1,0.6c0,0.1,0,0.3,0,0.7h-4.4c0,0.6,0.2,1.1,0.5,1.5c0.3,0.4,0.7,0.5,1.3,0.5C110.4,45.9,111,45.5,111.2,44.7z M107.9,43h3.3c0-0.6-0.2-1-0.5-1.3c-0.3-0.3-0.7-0.4-1.1-0.4c-0.3,0-0.6,0.1-0.8,0.2c-0.2,0.1-0.4,0.3-0.6,0.6 C108.1,42.4,108,42.7,107.9,43z"></path> <path class="st1" d="M115.7,45.7l0.1,0.9c-0.3,0.1-0.5,0.1-0.8,0.1c-0.3,0-0.6,0-0.8-0.1c-0.2-0.1-0.4-0.2-0.5-0.4 c-0.1-0.2-0.1-0.6-0.1-1.2v-3.4H113v-0.8h0.7v-1.5l1-0.6v2.1h1v0.8h-1v3.5c0,0.3,0,0.4,0.1,0.5c0,0.1,0.1,0.2,0.2,0.2 s0.2,0.1,0.3,0.1C115.4,45.7,115.6,45.7,115.7,45.7z"></path> <path class="st1" d="M120.5,46.6v-5.9h0.9v0.9c0.4-0.7,0.8-1,1.3-1c0.3,0,0.7,0.1,1,0.3l-0.3,0.9c-0.2-0.1-0.5-0.2-0.7-0.2 c-0.3,0-0.5,0.1-0.6,0.2c-0.2,0.1-0.3,0.4-0.4,0.7c-0.1,0.3-0.1,0.7-0.1,1v3.1H120.5z"></path> <path class="st1" d="M128.4,44.7l1,0.1c-0.3,1.3-1.2,1.9-2.6,1.9c-0.6,0-1.1-0.1-1.5-0.4c-0.4-0.2-0.7-0.6-1-1 c-0.2-0.5-0.3-1-0.3-1.6c0-1,0.2-1.7,0.7-2.3c0.5-0.6,1.2-0.9,2-0.9c0.2,0,0.4,0,0.5,0c0.2,0,0.3,0.1,0.5,0.1 c0.2,0.1,0.3,0.1,0.4,0.2c0.1,0.1,0.3,0.2,0.4,0.3c0.1,0.1,0.2,0.3,0.3,0.4c0.1,0.1,0.2,0.3,0.3,0.5c0.1,0.2,0.1,0.3,0.2,0.5 c0,0.2,0.1,0.4,0.1,0.6c0,0.1,0,0.3,0,0.7h-4.4c0,0.6,0.2,1.1,0.5,1.5c0.3,0.4,0.7,0.5,1.3,0.5C127.6,45.9,128.1,45.5,128.4,44.7z M125.1,43h3.3c0-0.6-0.2-1-0.5-1.3c-0.3-0.3-0.7-0.4-1.1-0.4c-0.3,0-0.6,0.1-0.8,0.2c-0.2,0.1-0.4,0.3-0.6,0.6 C125.2,42.4,125.1,42.7,125.1,43z"></path> <path class="st1" d="M132.4,46.6l-2.3-5.9h1.1l1.3,3.5c0.1,0.4,0.3,0.8,0.4,1.2c0.1-0.3,0.2-0.7,0.4-1.1l1.3-3.6h1l-2.3,5.9H132.4z "></path> <path class="st1" d="M136.5,39.5v-1.1h1v1.1H136.5z M136.5,46.6v-5.9h1v5.9H136.5z"></path> <path class="st1" d="M138.6,44.8l1-0.2c0.1,0.8,0.6,1.2,1.5,1.2s1.4-0.3,1.4-0.9c0-0.2-0.1-0.4-0.2-0.5c-0.2-0.1-0.5-0.2-1.1-0.4 c-0.4-0.1-0.7-0.2-1-0.3s-0.5-0.2-0.8-0.4c-0.2-0.2-0.4-0.3-0.5-0.5c-0.1-0.2-0.2-0.4-0.2-0.7c0-0.3,0.1-0.6,0.2-0.8 c0.1-0.2,0.4-0.5,0.7-0.6s0.7-0.3,1.3-0.3c0.5,0,0.9,0.1,1.2,0.2c0.3,0.1,0.6,0.3,0.8,0.5c0.2,0.2,0.3,0.6,0.4,1l-1,0.1 c-0.1-0.6-0.5-1-1.3-1c-0.9,0-1.3,0.3-1.3,0.8c0,0.1,0,0.3,0.1,0.4s0.2,0.2,0.3,0.2c0.1,0,0.4,0.1,1,0.3c0.1,0,0.4,0.1,0.9,0.2 c0.5,0.1,0.8,0.3,1.1,0.6s0.4,0.6,0.4,1c0,0.6-0.2,1-0.7,1.4c-0.5,0.3-1,0.5-1.7,0.5C139.7,46.7,138.8,46.1,138.6,44.8z"></path> <path class="st1" d="M144.4,43.6c0-1,0.3-1.8,0.8-2.3c0.5-0.5,1.2-0.8,2-0.8c0.5,0,1,0.1,1.4,0.3s0.7,0.5,1,1s0.4,1,0.4,1.7 c0,1.1-0.3,1.9-0.8,2.4s-1.2,0.8-2,0.8c-0.6,0-1.1-0.1-1.5-0.4s-0.7-0.6-1-1.1C144.5,44.8,144.4,44.3,144.4,43.6z M145.4,43.6 c0,0.5,0.1,0.9,0.2,1.2c0.1,0.3,0.3,0.6,0.6,0.8c0.3,0.2,0.6,0.3,0.9,0.3c0.6,0,1-0.2,1.3-0.6s0.4-1,0.4-1.7c0-0.7-0.2-1.2-0.5-1.6 c-0.3-0.4-0.7-0.6-1.3-0.6c-0.6,0-1,0.2-1.3,0.6C145.5,42.4,145.4,43,145.4,43.6z"></path> <path class="st1" d="M151.1,46.6v-5.9h0.9v0.9c0.4-0.7,0.8-1,1.3-1c0.3,0,0.7,0.1,1,0.3l-0.3,0.9c-0.2-0.1-0.5-0.2-0.7-0.2 c-0.3,0-0.5,0.1-0.6,0.2c-0.2,0.1-0.3,0.4-0.4,0.7c-0.1,0.3-0.1,0.7-0.1,1v3.1H151.1z"></path> <path class="st1" d="M164.8,43.7l1.1,0.3c-0.5,1.8-1.6,2.7-3.4,2.7c-1.3,0-2.3-0.4-2.9-1.2c-0.6-0.8-0.9-1.8-0.9-3.1 c0-1.4,0.4-2.4,1.1-3.1c0.7-0.7,1.7-1,2.7-1c1.7,0,2.8,0.8,3.2,2.4l-1.1,0.3c-0.4-1.1-1.1-1.7-2.2-1.7c-0.9,0-1.6,0.3-2,0.9 s-0.7,1.4-0.7,2.4c0,1.2,0.3,2,0.8,2.6s1.1,0.8,1.9,0.8C163.7,45.8,164.5,45.1,164.8,43.7z"></path> <path class="st1" d="M171,45.8c-0.7,0.6-1.4,0.9-2.2,0.9c-0.6,0-1.1-0.2-1.5-0.5s-0.6-0.7-0.6-1.2c0-0.3,0.1-0.6,0.2-0.8 c0.1-0.2,0.3-0.5,0.6-0.6c0.3-0.2,0.8-0.3,1.5-0.4c0.8-0.1,1.4-0.2,1.8-0.3v-0.3c0-0.8-0.5-1.2-1.4-1.2c-0.5,0-0.9,0.1-1.1,0.3 c-0.2,0.2-0.4,0.5-0.5,0.8l-1-0.1c0.3-1.2,1.1-1.8,2.7-1.8c0.4,0,0.8,0,1.1,0.1s0.6,0.2,0.7,0.4c0.2,0.2,0.3,0.4,0.4,0.6 c0.1,0.2,0.1,0.6,0.1,1.1v2.6c0,0.1,0,0.3,0.1,0.5c0,0.2,0.1,0.5,0.2,0.7h-1.1C171.1,46.4,171,46.1,171,45.8z M170.9,43.6 c-0.4,0.1-0.9,0.3-1.6,0.4c-0.6,0.1-1,0.2-1.2,0.4c-0.2,0.2-0.3,0.4-0.3,0.6c0,0.6,0.4,0.9,1.2,0.9c0.3,0,0.5,0,0.8-0.1 c0.2-0.1,0.4-0.2,0.6-0.3s0.3-0.3,0.4-0.6c0.1-0.2,0.1-0.5,0.1-1V43.6z"></path> <path class="st1" d="M173.3,46.6v-5.9h0.9v0.9c0.4-0.7,0.8-1,1.3-1c0.3,0,0.7,0.1,1,0.3l-0.3,0.9c-0.2-0.1-0.5-0.2-0.7-0.2 c-0.3,0-0.5,0.1-0.6,0.2c-0.2,0.1-0.3,0.4-0.4,0.7c-0.1,0.3-0.1,0.7-0.1,1v3.1H173.3z"></path> <path class="st1" d="M176.7,44.8l1-0.2c0.1,0.8,0.6,1.2,1.5,1.2s1.4-0.3,1.4-0.9c0-0.2-0.1-0.4-0.2-0.5c-0.2-0.1-0.5-0.2-1.1-0.4 c-0.4-0.1-0.7-0.2-1-0.3s-0.5-0.2-0.8-0.4c-0.2-0.2-0.4-0.3-0.5-0.5c-0.1-0.2-0.2-0.4-0.2-0.7c0-0.3,0.1-0.6,0.2-0.8 c0.1-0.2,0.4-0.5,0.7-0.6s0.7-0.3,1.3-0.3c0.5,0,0.9,0.1,1.2,0.2c0.3,0.1,0.6,0.3,0.8,0.5c0.2,0.2,0.3,0.6,0.4,1l-1,0.1 c-0.1-0.6-0.5-1-1.3-1c-0.9,0-1.3,0.3-1.3,0.8c0,0.1,0,0.3,0.1,0.4s0.2,0.2,0.3,0.2c0.1,0,0.4,0.1,1,0.3c0.1,0,0.4,0.1,0.9,0.2 c0.5,0.1,0.8,0.3,1.1,0.6s0.4,0.6,0.4,1c0,0.6-0.2,1-0.7,1.4c-0.5,0.3-1,0.5-1.7,0.5C177.8,46.7,176.9,46.1,176.7,44.8z"></path> <path class="st1" d="M185,45.7l0.1,0.9c-0.3,0.1-0.5,0.1-0.8,0.1c-0.3,0-0.6,0-0.8-0.1c-0.2-0.1-0.4-0.2-0.5-0.4 c-0.1-0.2-0.1-0.6-0.1-1.2v-3.4h-0.7v-0.8h0.7v-1.5l1-0.6v2.1h1v0.8h-1v3.5c0,0.3,0,0.4,0.1,0.5c0,0.1,0.1,0.2,0.2,0.2 s0.2,0.1,0.3,0.1C184.7,45.7,184.9,45.7,185,45.7z"></path> <path class="st1" d="M190,44.7l1,0.1c-0.3,1.3-1.2,1.9-2.6,1.9c-0.6,0-1.1-0.1-1.5-0.4c-0.4-0.2-0.7-0.6-1-1 c-0.2-0.5-0.3-1-0.3-1.6c0-1,0.2-1.7,0.7-2.3c0.5-0.6,1.2-0.9,2-0.9c0.2,0,0.4,0,0.5,0c0.2,0,0.3,0.1,0.5,0.1 c0.2,0.1,0.3,0.1,0.4,0.2c0.1,0.1,0.3,0.2,0.4,0.3c0.1,0.1,0.2,0.3,0.3,0.4c0.1,0.1,0.2,0.3,0.3,0.5c0.1,0.2,0.1,0.3,0.2,0.5 c0,0.2,0.1,0.4,0.1,0.6c0,0.1,0,0.3,0,0.7h-4.4c0,0.6,0.2,1.1,0.5,1.5c0.3,0.4,0.7,0.5,1.3,0.5C189.2,45.9,189.7,45.5,190,44.7z M186.7,43h3.3c0-0.6-0.2-1-0.5-1.3c-0.3-0.3-0.7-0.4-1.1-0.4c-0.3,0-0.6,0.1-0.8,0.2c-0.2,0.1-0.4,0.3-0.6,0.6 C186.8,42.4,186.7,42.7,186.7,43z"></path> <path class="st1" d="M192.3,46.6v-5.9h0.9v0.8c0.4-0.7,1.1-1,1.9-1c1.3,0,2,0.7,2,2.2v3.9h-1V43c0-1.1-0.4-1.6-1.2-1.6 c-1,0-1.6,0.7-1.6,2v3.2H192.3z"></path> <path class="st1" d="M202.3,43.9l1-0.1c0.1,0.7,0.3,1.1,0.8,1.4s1,0.5,1.6,0.5c0.7,0,1.2-0.1,1.5-0.4c0.3-0.3,0.5-0.6,0.5-1 c0-0.3-0.1-0.5-0.3-0.7c-0.2-0.2-0.4-0.3-0.7-0.5s-0.8-0.2-1.6-0.4c-0.6-0.1-1-0.3-1.4-0.4c-0.4-0.2-0.7-0.4-0.9-0.7 c-0.2-0.3-0.4-0.7-0.4-1.1c0-0.5,0.1-0.9,0.3-1.2c0.2-0.3,0.6-0.6,1-0.8c0.5-0.2,1-0.3,1.5-0.3c1,0,1.7,0.2,2.3,0.7 c0.5,0.5,0.8,1,0.8,1.8l-1,0.1c-0.1-1-0.8-1.6-2-1.6c-1.3,0-1.9,0.4-1.9,1.2c0,0.2,0.1,0.4,0.2,0.6c0.2,0.2,0.4,0.3,0.6,0.4 c0.2,0.1,0.6,0.2,1.1,0.3c0.9,0.2,1.5,0.4,1.8,0.5c0.3,0.1,0.6,0.3,0.8,0.5s0.3,0.4,0.4,0.7c0.1,0.2,0.1,0.5,0.1,0.8 c0,0.8-0.3,1.4-0.9,1.8s-1.3,0.6-2.1,0.6c-1.1,0-2-0.3-2.6-0.8C202.6,45.4,202.3,44.8,202.3,43.9z"></path> <path class="st1" d="M210.2,46.6v-5.9h0.9v0.8c0.4-0.6,1-1,1.8-1c0.9,0,1.4,0.3,1.7,1c0.5-0.7,1.1-1,1.8-1c1.2,0,1.8,0.7,1.8,2v4.1 h-1v-3.7c0-1-0.4-1.5-1.1-1.5c-1,0-1.5,0.6-1.5,1.7v3.4h-1v-3.8c0-0.9-0.4-1.3-1.1-1.3c-0.3,0-0.6,0.1-0.8,0.2 c-0.2,0.1-0.4,0.4-0.5,0.7c-0.1,0.3-0.2,0.7-0.2,1.2v3.1H210.2z"></path> <path class="st1" d="M223.7,44.7l1,0.1c-0.3,1.3-1.2,1.9-2.6,1.9c-0.6,0-1.1-0.1-1.5-0.4c-0.4-0.2-0.7-0.6-1-1 c-0.2-0.5-0.3-1-0.3-1.6c0-1,0.2-1.7,0.7-2.3c0.5-0.6,1.2-0.9,2-0.9c0.2,0,0.4,0,0.5,0c0.2,0,0.3,0.1,0.5,0.1 c0.2,0.1,0.3,0.1,0.4,0.2c0.1,0.1,0.3,0.2,0.4,0.3c0.1,0.1,0.2,0.3,0.3,0.4c0.1,0.1,0.2,0.3,0.3,0.5c0.1,0.2,0.1,0.3,0.2,0.5 c0,0.2,0.1,0.4,0.1,0.6c0,0.1,0,0.3,0,0.7h-4.4c0,0.6,0.2,1.1,0.5,1.5c0.3,0.4,0.7,0.5,1.3,0.5C222.9,45.9,223.4,45.5,223.7,44.7z M220.4,43h3.3c0-0.6-0.2-1-0.5-1.3c-0.3-0.3-0.7-0.4-1.1-0.4c-0.3,0-0.6,0.1-0.8,0.2c-0.2,0.1-0.4,0.3-0.6,0.6 C220.5,42.4,220.5,42.7,220.4,43z"></path> <path class="st1" d="M229.9,46.6v-0.7c-0.4,0.6-0.9,0.9-1.7,0.9c-0.8,0-1.4-0.3-1.9-0.9c-0.5-0.6-0.7-1.3-0.7-2.2 c0-0.6,0.1-1.2,0.3-1.7s0.5-0.8,0.9-1.1c0.4-0.2,0.8-0.4,1.3-0.4c0.7,0,1.2,0.3,1.6,0.8v-2.9h1v8.2H229.9z M226.7,43.6 c0,0.4,0.1,0.8,0.2,1.2c0.1,0.3,0.3,0.6,0.6,0.8c0.2,0.2,0.5,0.3,0.9,0.3c0.5,0,0.9-0.2,1.2-0.6c0.3-0.4,0.4-0.9,0.4-1.6 c0-0.7-0.1-1.3-0.4-1.7c-0.3-0.4-0.7-0.6-1.2-0.6C227.2,41.3,226.7,42.1,226.7,43.6z"></path> <path class="st1" d="M236.4,46.6v-8.2h1.6l1.9,5.8l0.4,1.2l0.4-1.3l2-5.7h1.5v8.2h-1v-6.9l-2.4,6.9h-1l-2.4-7v7H236.4z"></path> <path class="st1" d="M245.7,39.5v-1.1h1v1.1H245.7z M245.7,46.6v-5.9h1v5.9H245.7z"></path> <path class="st1" d="M248.3,46.6v-8.2h1v4.7l2.4-2.4h1.3l-2.3,2.2l2.5,3.7h-1.2l-2-3l-0.7,0.7v2.4H248.3z"></path> <path class="st1" d="M254,46.6v-8.2h1v4.7l2.4-2.4h1.3l-2.3,2.2l2.5,3.7h-1.2l-2-3l-0.7,0.7v2.4H254z"></path> <path class="st1" d="M263.8,44.7l1,0.1c-0.3,1.3-1.2,1.9-2.6,1.9c-0.6,0-1.1-0.1-1.5-0.4c-0.4-0.2-0.7-0.6-1-1 c-0.2-0.5-0.3-1-0.3-1.6c0-1,0.2-1.7,0.7-2.3c0.5-0.6,1.2-0.9,2-0.9c0.2,0,0.4,0,0.5,0c0.2,0,0.3,0.1,0.5,0.1s0.3,0.1,0.4,0.2 c0.1,0.1,0.3,0.2,0.4,0.3c0.1,0.1,0.2,0.3,0.3,0.4c0.1,0.1,0.2,0.3,0.3,0.5c0.1,0.2,0.1,0.3,0.2,0.5c0,0.2,0.1,0.4,0.1,0.6 c0,0.1,0,0.3,0,0.7h-4.4c0,0.6,0.2,1.1,0.5,1.5c0.3,0.4,0.7,0.5,1.3,0.5C263,45.9,263.5,45.5,263.8,44.7z M260.5,43h3.3 c0-0.6-0.2-1-0.5-1.3c-0.3-0.3-0.7-0.4-1.1-0.4c-0.3,0-0.6,0.1-0.8,0.2c-0.2,0.1-0.4,0.3-0.6,0.6C260.6,42.4,260.5,42.7,260.5,43z"></path> <path class="st1" d="M266.1,46.6v-8.2h1v8.2H266.1z"></path> <path class="st1" d="M268.2,44.8l1-0.2c0.1,0.8,0.6,1.2,1.5,1.2c0.9,0,1.4-0.3,1.4-0.9c0-0.2-0.1-0.4-0.2-0.5 c-0.2-0.1-0.5-0.2-1.1-0.4c-0.4-0.1-0.7-0.2-1-0.3s-0.5-0.2-0.8-0.4c-0.2-0.2-0.4-0.3-0.5-0.5c-0.1-0.2-0.2-0.4-0.2-0.7 c0-0.3,0.1-0.6,0.2-0.8s0.4-0.5,0.7-0.6c0.3-0.2,0.7-0.3,1.3-0.3c0.5,0,0.9,0.1,1.2,0.2c0.3,0.1,0.6,0.3,0.8,0.5 c0.2,0.2,0.3,0.6,0.4,1l-1,0.1c-0.1-0.6-0.5-1-1.3-1c-0.9,0-1.3,0.3-1.3,0.8c0,0.1,0,0.3,0.1,0.4c0.1,0.1,0.2,0.2,0.3,0.2 c0.1,0,0.4,0.1,1,0.3c0.1,0,0.4,0.1,0.9,0.2c0.5,0.1,0.8,0.3,1.1,0.6s0.4,0.6,0.4,1c0,0.6-0.2,1-0.7,1.4s-1,0.5-1.7,0.5 C269.3,46.7,268.5,46.1,268.2,44.8z"></path> <path class="st1" d="M278.4,44.7l1,0.1c-0.3,1.3-1.2,1.9-2.6,1.9c-0.6,0-1.1-0.1-1.5-0.4c-0.4-0.2-0.7-0.6-1-1 c-0.2-0.5-0.3-1-0.3-1.6c0-1,0.2-1.7,0.7-2.3c0.5-0.6,1.2-0.9,2-0.9c0.2,0,0.4,0,0.5,0c0.2,0,0.3,0.1,0.5,0.1s0.3,0.1,0.4,0.2 c0.1,0.1,0.3,0.2,0.4,0.3c0.1,0.1,0.2,0.3,0.3,0.4c0.1,0.1,0.2,0.3,0.3,0.5c0.1,0.2,0.1,0.3,0.2,0.5c0,0.2,0.1,0.4,0.1,0.6 c0,0.1,0,0.3,0,0.7h-4.4c0,0.6,0.2,1.1,0.5,1.5c0.3,0.4,0.7,0.5,1.3,0.5C277.6,45.9,278.1,45.5,278.4,44.7z M275.1,43h3.3 c0-0.6-0.2-1-0.5-1.3c-0.3-0.3-0.7-0.4-1.1-0.4c-0.3,0-0.6,0.1-0.8,0.2c-0.2,0.1-0.4,0.3-0.6,0.6C275.2,42.4,275.1,42.7,275.1,43z"></path> <path class="st1" d="M280.7,46.6v-5.9h0.9v0.8c0.4-0.7,1.1-1,1.9-1c1.3,0,2,0.7,2,2.2v3.9h-1V43c0-1.1-0.4-1.6-1.2-1.6 c-1,0-1.6,0.7-1.6,2v3.2H280.7z"></path> </g> </svg> 